<?xml version="1.0" encoding="UTF-8"?>
<svg width="1200" height="800" xmlns="http://www.w3.org/2000/svg">
 <g>
  <title>Flag_of_the_Ottoman_Empire</title>
  <rect fill="#E30A17" id="rect238" y="0" x="0" height="800" width="1200"/>
  <path fill="#FFFFFF" fill-rule="nonzero" stroke="#BD0308" stroke-width="1.2" stroke-miterlimit="4" stroke-dashoffset="0" id="path2634" d="m846.270386,480.018829l-90.558044,-21.682343l-60.638062,70.667603l-7.362854,-92.82605l-85.947083,-35.832703l86.007629,-35.687286l7.519775,-92.813507l60.518433,70.770142l90.594604,-21.529175l-48.605103,79.425629l48.470703,79.50769z"/>
  <path fill="#FFFFFF" id="path241" d="m352.64798,400c0,-111.10202 91.031006,-201.162003 202.128021,-201.162003c18.82196,0 36.970947,2.764999 54.250977,7.612c-43.549988,-36.153 -99.480988,-57.905014 -160.505981,-57.905014c-138.873016,0 -251.444992,112.593018 -251.444992,251.455017c0,138.872009 112.571976,251.453979 251.444992,251.453979c61.019989,0 116.951965,-21.750977 160.495972,-57.89502c-17.279968,4.837036 -35.417969,7.606018 -54.240967,7.606018c-111.096008,0.000977 -202.128021,-90.062988 -202.128021,-201.164978z"/>
 </g>
</svg>